<?xml version="1.0" encoding="UTF-8"?>
<svg id="INTEL_CPU" data-name="INTEL CPU" xmlns="http://www.w3.org/2000/svg" viewBox="0 0 1000 1000">
  <defs>
    <style>
      .cls-1 {
        fill: none;
        stroke: #36a9e1;
        stroke-miterlimit: 10;
        stroke-width: 40px;
      }
    </style>
  </defs>
  <g>
    <path class="cls-1" d="M779.44,181.57c0-6.21-6.07-11.28-13.49-11.28H232.5c-7.42,0-13.49,5.08-13.49,11.28v636.87c0,6.21,6.07,11.28,13.49,11.28h533.45c7.42,0,13.49-5.08,13.49-11.28V181.57Z"/>
    <path class="cls-1" d="M141.44,347.12c-16.84,7.64-26.09,17.32-26.09,27.32v251.12c0,10,9.24,19.68,26.09,27.32l77.57,35.18v-376.13l-77.57,35.18Z"/>
    <path class="cls-1" d="M857.01,347.12l-77.57-35.18v376.13l77.57-35.18c16.84-7.64,26.09-17.32,26.09-27.32v-251.12c0-10-9.24-19.68-26.09-27.32Z"/>
  </g>
  <path class="cls-1" d="M911.49,50h-205.91c-.75,11.62-12.25,20.85-26.32,20.85s-25.57-9.23-26.32-20.85h-305.92c0,12.18-11.8,22.06-26.36,22.06s-26.36-9.88-26.36-22.06H88.51c-21.18,0-38.51,14.5-38.51,32.22v835.56c0,17.72,17.33,32.22,38.51,32.22h205.87c0-12.18,11.8-22.06,26.36-22.06s26.36,9.88,26.36,22.06h305.8c0-12.18,11.8-22.06,26.36-22.06s26.36,9.88,26.36,22.06h205.87c21.18,0,38.51-14.5,38.51-32.22V82.22c0-17.72-17.33-32.22-38.51-32.22Z"/>
</svg>