<?xml version="1.0" encoding="UTF-8"?>
<svg id="katman_1" data-name="katman 1" xmlns="http://www.w3.org/2000/svg" viewBox="0 0 858.52 132.33">
  <defs>
    <style>
      .cls-1 {
        fill: #828282;
        fill-rule: evenodd;
        stroke-width: 0px;
      }
    </style>
  </defs>
  <path class="cls-1" d="M0,0s709.8,53.29,744.78,57.96c37.98,5.07,64.53,19.69,64.53,19.69,0,0-43.27,3.99-55.78,9.84L0,0Z"/>
  <path class="cls-1" d="M748.08,90.77s-271.68-30.25-303.26-32.67c-91.43-7.01-372.33-27.96-372.33-27.96l416.06,52.57-432.78,1.5,617.91,27.34s61.94-21.13,74.4-20.78Z"/>
  <path class="cls-1" d="M668.52,114.51l-34.23,13.66-93.22-6.42-101.78-5.2-103.22-3.14-146.33-2.76,138.43-5.72h103.22l166.94,7.16,70.19,2.41Z"/>
  <path class="cls-1" d="M692.28,49.21c-1.52-1.63,78.77,1.75,113.14,16.93,19.11,8.44,47.02,27.57,53.1,66.19-1.61-4.18,3.47-57.25-26.87-78.19-35.1-24.22-90.57-13.93-139.36-4.93Z"/>
</svg>