<?xml version="1.0" encoding="UTF-8"?>
<svg id="katman_2" data-name="katman 2" xmlns="http://www.w3.org/2000/svg" viewBox="0 0 572.65 134.56">
  <defs>
    <style>
      .cls-1 {
        fill: #828282;
        stroke-width: 0px;
      }
    </style>
  </defs>
  <path class="cls-1" d="M34.19,50.93v82.65L0,99.39V1.1h32.74l35.64,35.64L104.02,1.1h32.74v92.71l-34.19,26.95V50.93l-34.19,34.19-34.19-34.19Z"/>
  <path class="cls-1" d="M222.22,1.1c16.52,0,30.63,5.84,42.31,17.52,11.68,11.68,17.52,25.78,17.52,42.31v38.46l-34.19,34.19v-38.46h-68.38v25.64l-34.19-16.23v-43.6c0-16.52,5.84-30.63,17.52-42.31S188.6,1.1,205.13,1.1h17.09ZM247.87,60.93c0-7.06-2.51-13.11-7.52-18.12-5.01-5.01-11.06-7.52-18.12-7.52h-17.09c-7.07,0-13.11,2.51-18.12,7.52s-7.52,11.06-7.52,18.12h68.38Z"/>
  <path class="cls-1" d="M350.43,86.57h47.25l36.23,34.19h-83.48c-16.53,0-30.63-5.84-42.31-17.52-11.68-11.68-17.52-25.78-17.52-42.31s5.84-30.63,17.52-42.31c11.68-11.68,25.78-17.52,42.31-17.52h83.17l-37.18,34.19h-45.99c-7.07,0-13.11,2.51-18.12,7.52-5.01,5.01-7.52,11.06-7.52,18.12s2.51,13.11,7.52,18.12c5.01,5.01,11.05,7.52,18.12,7.52Z"/>
  <path class="cls-1" d="M470.09,78.02v18.31l-34.19,24.43V1.1l34.19,21.82v20.91h68.38V1.1l34.19,20.25v112.23l-34.19-12.82v-42.74h-68.38Z"/>
</svg>