<?xml version="1.0" encoding="UTF-8"?>
<svg id="katman_2" data-name="katman 2" xmlns="http://www.w3.org/2000/svg" viewBox="0 0 899.35 907.78">
  <defs>
    <style>
      .cls-1 {
        fill: none;
        stroke: #36a9e1;
        stroke-miterlimit: 10;
        stroke-width: 16px;
      }
    </style>
  </defs>
  <g id="VOLTAGE">
    <path class="cls-1" d="M682.99,237.22l-109.39,115.35c-5.17,5.45-3.71,12.77,2.56,12.78l88.88.15c6.99.01,7.74,8.86,1.19,14.03l-44.48,35.09h.33s-16.51,13.07-16.51,13.07l-125.11,101.07c-6.44,5.2-5.62,13.92,1.31,13.94l77.48.13c7.54.01,7.61,10.07.11,14.79l-128.93,81.22-50.78,32-101.57,63.98-239.53,150.9-19.59,12.34c-8.77,5.53-15.05-3.47-7.77-11.14l10.26-10.81,194.91-205.55,109.39-115.35c5.17-5.45,3.71-12.77-2.56-12.78l-88.88-.15c-6.99-.01-7.74-8.86-1.19-14.03l44.48-35.09h-.33s16.51-13.07,16.51-13.07l125.11-101.07c6.44-5.2,5.62-13.92-1.31-13.94l-77.48-.13c-7.54-.01-7.61-10.07-.11-14.79l128.93-81.22,50.78-32,101.57-63.98L860.8,22.05l19.59-12.34c8.77-5.53,15.05,3.47,7.77,11.14l-10.26,10.81-194.91,205.55Z"/>
  </g>
</svg>